<?xml version="1.0" encoding="utf-8"?>
<!-- Generator: Adobe Illustrator 25.0.0, SVG Export Plug-In . SVG Version: 6.00 Build 0)  -->
<svg version="1.1" id="Camada_1" xmlns="http://www.w3.org/2000/svg" xmlns:xlink="http://www.w3.org/1999/xlink" x="0px" y="0px"
	 viewBox="0 0 15 9" style="enable-background:new 0 0 15 9;" xml:space="preserve">
<style type="text/css">
	.st0{fill:#050505;}
</style>
<path class="st0" d="M5.9,4c0,0,1.3-0.1,1.3-1.7C7.2,0.8,6.1,0,4.8,0H0.2v8.8h4.5c0,0,2.8,0.1,2.8-2.6C7.5,6.2,7.6,4,5.9,4z
	 M4.4,1.6h0.3c0,0,0.6,0,0.6,0.9c0,0.9-0.4,1-0.8,1H2.2v-2H4.4z M4.6,7.2H2.2V4.9h2.5c0,0,0.9,0,0.9,1.2C5.7,7.1,5,7.2,4.6,7.2z
	 M11.2,2.2c-3.3,0-3.3,3.4-3.3,3.4S7.6,9,11.2,9c0,0,3,0.2,3-2.3h-1.5c0,0,0.1,0.9-1.4,0.9c0,0-1.5,0.1-1.5-1.5h4.5
	C14.2,6.1,14.7,2.2,11.2,2.2z M9.7,4.9c0,0,0.2-1.4,1.5-1.4c1.3,0,1.3,1.4,1.3,1.4H9.7z M12.9,1.6H9.3V0.5h3.6V1.6z"/>
</svg>
