<svg width="13" height="12" viewBox="0 0 13 12" fill="none" xmlns="http://www.w3.org/2000/svg">
<path d="M8.79751 0H3.82598C1.80551 0 0.161743 1.60368 0.161743 3.57486V8.42513C0.161743 10.3963 1.80551 12 3.82598 12H8.79751C10.818 12 12.4617 10.3963 12.4617 8.42513V3.57486C12.4617 1.60368 10.818 0 8.79751 0ZM11.2244 8.42513C11.2244 9.73275 10.1378 10.7928 8.79751 10.7928H3.82598C2.48568 10.7928 1.39912 9.73275 1.39912 8.42513V3.57486C1.39912 2.26723 2.48568 1.2072 3.82598 1.2072H8.79751C10.1378 1.2072 11.2244 2.26723 11.2244 3.57486V8.42513Z" fill="#050505"/>
<path d="M6.31171 2.89636C4.55758 2.89636 3.13049 4.28865 3.13049 5.99997C3.13049 7.71129 4.55758 9.1036 6.31171 9.1036C8.06584 9.1036 9.49293 7.71131 9.49293 5.99997C9.49293 4.28862 8.06584 2.89636 6.31171 2.89636ZM6.31171 7.89642C5.23815 7.89642 4.36787 7.04737 4.36787 5.99999C4.36787 4.95261 5.23817 4.10356 6.31171 4.10356C7.38527 4.10356 8.25555 4.95261 8.25555 5.99999C8.25555 7.04734 7.38525 7.89642 6.31171 7.89642Z" fill="#050505"/>
<path d="M9.49916 3.66341C9.92016 3.66341 10.2614 3.33045 10.2614 2.91972C10.2614 2.50899 9.92016 2.17603 9.49916 2.17603C9.07816 2.17603 8.73688 2.50899 8.73688 2.91972C8.73688 3.33045 9.07816 3.66341 9.49916 3.66341Z" fill="#050505"/>
</svg>
