<?xml version="1.0" encoding="utf-8"?>
<!-- Generator: Adobe Illustrator 25.0.0, SVG Export Plug-In . SVG Version: 6.00 Build 0)  -->
<svg version="1.1" id="Camada_1" xmlns="http://www.w3.org/2000/svg" xmlns:xlink="http://www.w3.org/1999/xlink" x="0px" y="0px"
	 viewBox="0 0 12 11" style="enable-background:new 0 0 12 11;" xml:space="preserve">
<style type="text/css">
	.st0{fill:#FFFFFF;}
</style>
<path class="st0" d="M0.8,1.7c0-0.3,0.1-0.6,0.4-0.8C1.4,0.6,1.7,0.5,2,0.5c0.4,0,0.7,0.1,0.9,0.3C3.2,1,3.3,1.3,3.3,1.7
	c0,0.3-0.1,0.6-0.3,0.8C2.7,2.7,2.4,2.8,2,2.8h0c-0.4,0-0.7-0.1-0.9-0.3C0.9,2.3,0.8,2,0.8,1.7z M0.9,10.5V3.8h2.2v6.7H0.9z
	 M4.4,10.5h2.2V6.7c0-0.2,0-0.4,0.1-0.5C6.8,6,6.9,5.8,7.1,5.6c0.2-0.2,0.4-0.2,0.7-0.2C8.6,5.4,9,5.9,9,6.9v3.6h2.2V6.6
	c0-1-0.2-1.8-0.7-2.3c-0.5-0.5-1.1-0.8-1.9-0.8c-0.9,0-1.5,0.4-2,1.1v0h0l0,0v-1H4.4c0,0.2,0,0.9,0,2C4.4,6.9,4.4,8.5,4.4,10.5z"/>
</svg>
