<?xml version="1.0" encoding="utf-8"?>
<!-- Generator: Adobe Illustrator 25.0.0, SVG Export Plug-In . SVG Version: 6.00 Build 0)  -->
<svg version="1.1" id="Camada_1" xmlns="http://www.w3.org/2000/svg" xmlns:xlink="http://www.w3.org/1999/xlink" x="0px" y="0px"
	 viewBox="0 0 13 12" style="enable-background:new 0 0 13 12;" xml:space="preserve">
<style type="text/css">
	.st0{fill:#0DCE7B;}
</style>
<path class="st0" d="M5.8,0C2.5,0.2,0,2.8,0,6c0,1,0.2,1.9,0.7,2.7L0,11.7C0,11.9,0.1,12,0.3,12l3.1-0.7C4.2,11.7,5,11.9,6,11.9
	c3.3,0,6.1-2.5,6.2-5.8C12.3,2.7,9.3-0.2,5.8,0z M9.4,9.2c-0.9,0.9-2.1,1.4-3.4,1.4c-0.7,0-1.5-0.2-2.1-0.5L3.5,9.9l-1.9,0.4L2,8.5
	L1.8,8.1C1.5,7.4,1.3,6.7,1.3,6c0-1.2,0.5-2.4,1.4-3.3c0.9-0.9,2.1-1.4,3.4-1.4c1.3,0,2.5,0.5,3.4,1.4c0.9,0.9,1.4,2.1,1.4,3.3
	C10.8,7.2,10.3,8.4,9.4,9.2z"/>
<path class="st0" d="M9,7.2L7.9,6.9c-0.2,0-0.3,0-0.4,0.1L7.1,7.3C7,7.4,6.8,7.5,6.7,7.4c-0.6-0.2-1.7-1.2-2-1.8
	c-0.1-0.1-0.1-0.3,0-0.5l0.3-0.3C5,4.7,5,4.6,5,4.4L4.5,3.3C4.4,3.1,4,3,3.8,3.2C3.5,3.5,3.1,3.9,3,4.3c-0.1,0.8,0.3,1.8,1.6,3
	C6.2,8.8,7.4,9,8.2,8.8c0.5-0.1,0.8-0.5,1.1-0.9C9.4,7.6,9.3,7.3,9,7.2z"/>
</svg>
